<svg width="40" height="40" viewBox="0 0 40 40" fill="none" xmlns="http://www.w3.org/2000/svg">
<path d="M16.8752 8.125C16.8752 7.2962 17.2044 6.50134 17.7904 5.91529C18.3765 5.32924 19.1714 5 20.0002 5C20.829 5 21.6238 5.32924 22.2099 5.91529C22.7959 6.50134 23.1252 7.2962 23.1252 8.125C23.1252 8.9538 22.7959 9.74866 22.2099 10.3347C21.6238 10.9208 20.829 11.25 20.0002 11.25C19.1714 11.25 18.3765 10.9208 17.7904 10.3347C17.2044 9.74866 16.8752 8.9538 16.8752 8.125ZM20.0002 2.5C19.1518 2.50001 18.3144 2.69192 17.5507 3.06135C16.787 3.43079 16.1168 3.96818 15.5902 4.6333C15.0636 5.29843 14.6942 6.07405 14.5098 6.90212C14.3253 7.73019 14.3306 8.58925 14.5252 9.415L10.4952 7.79C9.51735 7.3962 8.42363 7.40429 7.45177 7.81251C6.4799 8.22073 5.70846 8.99608 5.30515 9.97C5.10553 10.4523 5.00348 10.9694 5.0049 11.4914C5.00632 12.0134 5.11118 12.5299 5.31343 13.0111C5.51568 13.4923 5.8113 13.9286 6.1832 14.2949C6.5551 14.6612 6.99591 14.9501 7.48015 15.145L12.5002 17.1725V23.1325L7.96765 31.6575C7.72225 32.1188 7.57009 32.6239 7.51989 33.1439C7.46968 33.664 7.5224 34.1889 7.67504 34.6886C7.82767 35.1883 8.07724 35.653 8.40948 36.0562C8.74172 36.4595 9.15014 36.7933 9.6114 37.0388C10.543 37.5344 11.6333 37.6396 12.6425 37.3314C13.6516 37.0231 14.497 36.3266 14.9927 35.395L20.0002 25.975L25.0102 35.395C25.5054 36.3266 26.3505 37.0232 27.3595 37.3317C28.3684 37.6402 29.4586 37.5353 30.3902 37.04C31.3217 36.5447 32.0184 35.6996 32.3269 34.6907C32.6354 33.6817 32.5304 32.5916 32.0352 31.66L27.5002 23.13V17.1725L32.5202 15.145C33.0044 14.9501 33.4452 14.6612 33.8171 14.2949C34.189 13.9286 34.4846 13.4923 34.6869 13.0111C34.8891 12.5299 34.994 12.0134 34.9954 11.4914C34.9968 10.9694 34.8948 10.4523 34.6952 9.97C34.2923 8.99563 33.5211 8.21971 32.5492 7.811C31.5772 7.40229 30.4833 7.39384 29.5052 7.7875L25.4777 9.415C25.6723 8.58905 25.6775 7.72977 25.4929 6.90151C25.3083 6.07326 24.9388 5.29749 24.4119 4.63232C23.885 3.96715 23.2144 3.42981 22.4504 3.06054C21.6864 2.69126 20.8487 2.49964 20.0002 2.5ZM7.61765 10.9225C7.76892 10.5588 8.05717 10.2692 8.42015 10.1163C8.78313 9.9633 9.19172 9.95926 9.55765 10.105L18.1277 13.5675C19.3288 14.0527 20.6715 14.0527 21.8727 13.5675L30.4427 10.105C30.8086 9.95926 31.2172 9.9633 31.5802 10.1163C31.9431 10.2692 32.2314 10.5588 32.3827 10.9225C32.4567 11.0999 32.4948 11.2903 32.4945 11.4826C32.4943 11.6749 32.4559 11.8652 32.3814 12.0425C32.307 12.2198 32.198 12.3805 32.0609 12.5152C31.9238 12.65 31.7612 12.7561 31.5827 12.8275L26.5627 14.8525C26.1002 15.0396 25.7043 15.3607 25.4259 15.7746C25.1474 16.1885 24.9992 16.6762 25.0002 17.175V23.1325C24.9999 23.5422 25.1003 23.9457 25.2927 24.3075L29.8277 32.835C29.9916 33.179 30.0166 33.573 29.8973 33.935C29.778 34.297 29.5237 34.5989 29.1873 34.7781C28.851 34.9572 28.4585 34.9997 28.0915 34.8967C27.7246 34.7937 27.4116 34.5531 27.2177 34.225L22.2077 24.8C21.9947 24.3994 21.6767 24.0643 21.2879 23.8306C20.899 23.5969 20.4538 23.4734 20.0002 23.4734C19.5465 23.4734 19.1013 23.5969 18.7124 23.8306C18.3236 24.0643 18.0056 24.3994 17.7927 24.8L12.7852 34.2175C12.694 34.3889 12.5701 34.5406 12.4203 34.6641C12.2706 34.7876 12.098 34.8803 11.9124 34.9371C11.7268 34.9938 11.5318 35.0135 11.3386 34.9949C11.1454 34.9763 10.9578 34.9199 10.7864 34.8288C10.615 34.7376 10.4633 34.6137 10.3398 34.4639C10.2163 34.3142 10.1236 34.1416 10.0668 33.956C10.0101 33.7704 9.99042 33.5754 10.009 33.3822C10.0276 33.189 10.084 33.0014 10.1752 32.83L14.7077 24.305C14.8996 23.944 15 23.5414 15.0002 23.1325V17.1725C15.0001 16.6745 14.8514 16.1879 14.573 15.775C14.2946 15.3621 13.8993 15.0417 13.4377 14.855L8.41765 12.825C8.23911 12.7536 8.07654 12.6475 7.9394 12.5127C7.80227 12.378 7.69331 12.2173 7.61886 12.04C7.54441 11.8627 7.50597 11.6724 7.50576 11.4801C7.50555 11.2878 7.54359 11.0999 7.61765 10.9225Z" fill="#A729F5"/>
</svg>
