<svg width="40" height="40" viewBox="0 0 40 40" fill="none" xmlns="http://www.w3.org/2000/svg">
<path d="M10 2.50586C9.66848 2.50586 9.35054 2.63756 9.11612 2.87198C8.8817 3.1064 8.75 3.42434 8.75 3.75586V21.2509C8.75 22.5769 9.27678 23.8487 10.2145 24.7864C11.1521 25.7241 12.4239 26.2509 13.75 26.2509H15V32.5009C15 33.1571 15.1293 33.807 15.3804 34.4133C15.6316 35.0196 15.9997 35.5706 16.4637 36.0346C16.9278 36.4987 17.4787 36.8668 18.085 37.1179C18.6914 37.3691 19.3412 37.4984 19.9975 37.4984C20.6538 37.4984 21.3036 37.3691 21.91 37.1179C22.5163 36.8668 23.0672 36.4987 23.5313 36.0346C23.9953 35.5706 24.3634 35.0196 24.6146 34.4133C24.8657 33.807 24.995 33.1571 24.995 32.5009V26.2509H26.25C27.5761 26.2509 28.8479 25.7241 29.7855 24.7864C30.7232 23.8487 31.25 22.5769 31.25 21.2509V3.75586C31.25 3.42434 31.1183 3.1064 30.8839 2.87198C30.6495 2.63756 30.3315 2.50586 30 2.50586H10ZM28.75 17.5009H11.25V5.00586H18.75V8.76086C18.75 9.09238 18.8817 9.41032 19.1161 9.64474C19.3505 9.87916 19.6685 10.0109 20 10.0109C20.3315 10.0109 20.6495 9.87916 20.8839 9.64474C21.1183 9.41032 21.25 9.09238 21.25 8.76086V5.00586H23.75V11.2459C23.75 11.5774 23.8817 11.8953 24.1161 12.1297C24.3505 12.3642 24.6685 12.4959 25 12.4959C25.3315 12.4959 25.6495 12.3642 25.8839 12.1297C26.1183 11.8953 26.25 11.5774 26.25 11.2459V5.00586H28.75V17.5009ZM11.25 21.2509V20.0009H28.75V21.2509C28.75 21.9139 28.4866 22.5498 28.0178 23.0186C27.5489 23.4875 26.913 23.7509 26.25 23.7509H23.745C23.4135 23.7509 23.0955 23.8826 22.8611 24.117C22.6267 24.3514 22.495 24.6693 22.495 25.0009V32.5009C22.495 33.1632 22.2319 33.7985 21.7635 34.2669C21.2951 34.7352 20.6599 34.9984 19.9975 34.9984C19.3351 34.9984 18.6999 34.7352 18.2315 34.2669C17.7631 33.7985 17.5 33.1632 17.5 32.5009V25.0009C17.5 24.6693 17.3683 24.3514 17.1339 24.117C16.8995 23.8826 16.5815 23.7509 16.25 23.7509H13.75C13.087 23.7509 12.4511 23.4875 11.9822 23.0186C11.5134 22.5498 11.25 21.9139 11.25 21.2509Z" fill="#2FD887"/>
</svg>
