<svg width="40" height="40" viewBox="0 0 40 40" fill="none" xmlns="http://www.w3.org/2000/svg">
<path d="M24.5073 7.60769C24.6573 7.67432 24.7928 7.76986 24.9059 7.88884C25.019 8.00783 25.1076 8.14794 25.1666 8.30116C25.2255 8.45438 25.2537 8.61772 25.2496 8.78184C25.2454 8.94596 25.209 9.10766 25.1423 9.25769L15.1423 31.7577C15.0077 32.0607 14.7582 32.2978 14.4488 32.4169C14.1394 32.536 13.7953 32.5273 13.4923 32.3927C13.1893 32.2581 12.9521 32.0086 12.8331 31.6992C12.714 31.3898 12.7227 31.0457 12.8573 30.7427L22.8573 8.24269C22.9239 8.09264 23.0195 7.95719 23.1384 7.84407C23.2574 7.73095 23.3975 7.64238 23.5508 7.58341C23.704 7.52444 23.8673 7.49624 24.0314 7.5004C24.1956 7.50457 24.3573 7.54103 24.5073 7.60769ZM10.8323 13.4402C10.9548 13.5495 11.0545 13.6819 11.1258 13.8298C11.1971 13.9776 11.2386 14.1381 11.2478 14.302C11.2571 14.4659 11.234 14.63 11.1799 14.785C11.1258 14.9399 11.0416 15.0827 10.9323 15.2052L6.67479 20.0002L10.9373 24.7952C11.0463 24.918 11.13 25.061 11.1837 25.2162C11.2375 25.3713 11.2601 25.5355 11.2503 25.6994C11.2406 25.8633 11.1986 26.0237 11.1269 26.1714C11.0552 26.3191 10.9551 26.4512 10.8323 26.5602C10.7095 26.6692 10.5664 26.7529 10.4113 26.8066C10.2561 26.8604 10.0919 26.883 9.92804 26.8732C9.76415 26.8635 9.60378 26.8216 9.45609 26.7498C9.3084 26.6781 9.17629 26.578 9.06729 26.4552L4.06729 20.8302C3.86415 20.6014 3.75195 20.3061 3.75195 20.0002C3.75195 19.6943 3.86415 19.3989 4.06729 19.1702L9.06729 13.5452C9.17627 13.4224 9.30837 13.3222 9.45606 13.2505C9.60375 13.1787 9.76413 13.1368 9.92803 13.127C10.0919 13.1173 10.2562 13.1399 10.4113 13.1937C10.5665 13.2474 10.7095 13.3312 10.8323 13.4402ZM29.1698 13.4402C29.2926 13.3312 29.4356 13.2474 29.5908 13.1937C29.7459 13.1399 29.9101 13.1173 30.074 13.127C30.2379 13.1368 30.3983 13.1787 30.546 13.2505C30.6937 13.3222 30.8258 13.4224 30.9348 13.5452L35.9348 19.1702C36.1379 19.3989 36.2501 19.6943 36.2501 20.0002C36.2501 20.3061 36.1379 20.6014 35.9348 20.8302L30.9348 26.4552C30.8258 26.578 30.6937 26.6781 30.546 26.7498C30.3983 26.8216 30.2379 26.8635 30.074 26.8732C29.9101 26.883 29.7459 26.8604 29.5908 26.8066C29.4356 26.7529 29.2926 26.6692 29.1698 26.5602C29.047 26.4512 28.9469 26.3191 28.8752 26.1714C28.8034 26.0237 28.7615 25.8633 28.7517 25.6994C28.742 25.5355 28.7646 25.3713 28.8183 25.2162C28.872 25.061 28.9558 24.918 29.0648 24.7952L33.3273 20.0002L29.0648 15.2052C28.9558 15.0824 28.872 14.9394 28.8183 14.7842C28.7645 14.6291 28.7419 14.4648 28.7516 14.3009C28.7614 14.137 28.8033 13.9767 28.8751 13.829C28.9468 13.6813 29.047 13.5492 29.1698 13.4402Z" fill="#FF7E35"/>
</svg>
